<svg width="22" height="22" viewBox="0 0 22 22" fill="none" xmlns="http://www.w3.org/2000/svg">
<path d="M11.0002 2.05945C8.82354 2.05954 6.71795 2.83414 5.06016 4.24464C3.40237 5.65515 2.30056 7.60952 1.95189 9.75806C1.60322 11.9066 2.03044 14.1091 3.1571 15.9715C4.28375 17.8338 6.03633 19.2346 8.10125 19.923C8.55958 20.0032 8.73146 19.7282 8.73146 19.4876C8.73146 19.2699 8.71999 18.548 8.71999 17.7803C6.41685 18.2042 5.82102 17.2188 5.63769 16.7032C5.43426 16.2017 5.11177 15.7573 4.6981 15.4084C4.37727 15.2365 3.91894 14.8126 4.68664 14.8011C4.97977 14.8329 5.26093 14.9349 5.50627 15.0985C5.75161 15.2621 5.95391 15.4823 6.09602 15.7407C6.22139 15.9659 6.38998 16.1642 6.59211 16.3241C6.79425 16.4841 7.02596 16.6026 7.27397 16.6729C7.52198 16.7431 7.78141 16.7637 8.03741 16.7335C8.2934 16.7034 8.54093 16.623 8.76579 16.4969C8.80548 16.0309 9.01317 15.5952 9.35019 15.2709C7.3106 15.0418 5.17935 14.2511 5.17935 10.7449C5.16647 9.83386 5.50265 8.95242 6.11894 8.28135C5.8387 7.48955 5.87149 6.62061 6.2106 5.85218C6.2106 5.85218 6.97828 5.61155 8.73144 6.79177C10.2314 6.37924 11.8148 6.37924 13.3148 6.79177C15.0679 5.6001 15.8356 5.85218 15.8356 5.85218C16.1748 6.6206 16.2076 7.48956 15.9273 8.28135C16.5454 8.95127 16.8819 9.83348 16.8669 10.7449C16.8669 14.2626 14.7241 15.0418 12.6846 15.2709C12.9033 15.4927 13.0718 15.7589 13.1786 16.0515C13.2853 16.3441 13.3279 16.6563 13.3033 16.9668C13.3033 18.1928 13.2918 19.1782 13.2918 19.4876C13.2918 19.7282 13.4637 20.0147 13.9221 19.923C15.9833 19.229 17.7309 17.825 18.8527 15.9617C19.9746 14.0983 20.3977 11.897 20.0467 9.7505C19.6956 7.60404 18.5931 5.65221 16.936 4.24342C15.279 2.83463 13.1752 2.06058 11.0002 2.05945Z" fill="black"/>
</svg>
