<svg width="40" height="40" viewBox="0 0 40 40" fill="none" xmlns="http://www.w3.org/2000/svg">
<path d="M20 11.0595C17.8234 11.0596 15.7178 11.8342 14.06 13.2447C12.4022 14.6552 11.3004 16.6095 10.9517 18.7581C10.603 20.9066 11.0303 23.1091 12.1569 24.9715C13.2836 26.8339 15.0362 28.2346 17.1011 28.923C17.5594 29.0032 17.7313 28.7282 17.7313 28.4876C17.7313 28.2699 17.7198 27.548 17.7198 26.7803C15.4167 27.2043 14.8208 26.2189 14.6375 25.7033C14.4341 25.2018 14.1116 24.7574 13.6979 24.4084C13.3771 24.2366 12.9188 23.8126 13.6865 23.8012C13.9796 23.833 14.2607 23.935 14.5061 24.0985C14.7514 24.2621 14.9537 24.4824 15.0958 24.7407C15.2212 24.9659 15.3898 25.1642 15.5919 25.3242C15.7941 25.4841 16.0258 25.6026 16.2738 25.6729C16.5218 25.7431 16.7812 25.7638 17.0372 25.7336C17.2932 25.7034 17.5407 25.623 17.7656 25.497C17.8053 25.031 18.013 24.5952 18.35 24.271C16.3104 24.0418 14.1792 23.2511 14.1792 19.7449C14.1663 18.8339 14.5025 17.9525 15.1188 17.2814C14.8385 16.4896 14.8713 15.6206 15.2104 14.8522C15.2104 14.8522 15.9781 14.6116 17.7313 15.7918C19.2312 15.3793 20.8147 15.3793 22.3146 15.7918C24.0677 14.6001 24.8354 14.8522 24.8354 14.8522C25.1746 15.6206 25.2074 16.4896 24.9271 17.2814C25.5452 17.9513 25.8817 18.8335 25.8667 19.7449C25.8667 23.2626 23.7239 24.0418 21.6844 24.271C21.9031 24.4927 22.0716 24.7589 22.1784 25.0515C22.2852 25.3441 22.3277 25.6563 22.3031 25.9668C22.3031 27.1929 22.2917 28.1782 22.2917 28.4876C22.2917 28.7283 22.4635 29.0147 22.9219 28.923C24.9831 28.229 26.7307 26.825 27.8525 24.9617C28.9744 23.0984 29.3976 20.897 29.0465 18.7505C28.6954 16.6041 27.5929 14.6522 25.9358 13.2434C24.2788 11.8347 22.175 11.0606 20 11.0595Z" fill="#1B2327"/>
</svg>
