<svg width="40" height="40" viewBox="0 0 40 40" fill="none" xmlns="http://www.w3.org/2000/svg">
<path d="M20 11.6667C22.2642 11.6667 22.5467 11.675 23.435 11.7167C24.3225 11.7583 24.9267 11.8975 25.4583 12.1042C26.0083 12.3158 26.4717 12.6025 26.935 13.065C27.3587 13.4816 27.6866 13.9855 27.8958 14.5417C28.1017 15.0725 28.2417 15.6775 28.2833 16.565C28.3225 17.4533 28.3333 17.7358 28.3333 20C28.3333 22.2642 28.325 22.5467 28.2833 23.435C28.2417 24.3225 28.1017 24.9267 27.8958 25.4583C27.6872 26.0148 27.3593 26.5188 26.935 26.935C26.5183 27.3586 26.0144 27.6865 25.4583 27.8958C24.9275 28.1017 24.3225 28.2417 23.435 28.2833C22.5467 28.3225 22.2642 28.3333 20 28.3333C17.7358 28.3333 17.4533 28.325 16.565 28.2833C15.6775 28.2417 15.0733 28.1017 14.5417 27.8958C13.9853 27.6871 13.4813 27.3591 13.065 26.935C12.6412 26.5185 12.3133 26.0145 12.1042 25.4583C11.8975 24.9275 11.7583 24.3225 11.7167 23.435C11.6775 22.5467 11.6667 22.2642 11.6667 20C11.6667 17.7358 11.675 17.4533 11.7167 16.565C11.7583 15.6767 11.8975 15.0733 12.1042 14.5417C12.3127 13.9851 12.6407 13.4811 13.065 13.065C13.4814 12.641 13.9853 12.3131 14.5417 12.1042C15.0733 11.8975 15.6767 11.7583 16.565 11.7167C17.4533 11.6775 17.7358 11.6667 20 11.6667ZM20 15.8333C18.8949 15.8333 17.8351 16.2723 17.0537 17.0537C16.2723 17.8351 15.8333 18.8949 15.8333 20C15.8333 21.1051 16.2723 22.1649 17.0537 22.9463C17.8351 23.7277 18.8949 24.1667 20 24.1667C21.1051 24.1667 22.1649 23.7277 22.9463 22.9463C23.7277 22.1649 24.1667 21.1051 24.1667 20C24.1667 18.8949 23.7277 17.8351 22.9463 17.0537C22.1649 16.2723 21.1051 15.8333 20 15.8333ZM25.4167 15.625C25.4167 15.3487 25.3069 15.0838 25.1116 14.8884C24.9162 14.6931 24.6513 14.5833 24.375 14.5833C24.0987 14.5833 23.8338 14.6931 23.6384 14.8884C23.4431 15.0838 23.3333 15.3487 23.3333 15.625C23.3333 15.9013 23.4431 16.1662 23.6384 16.3616C23.8338 16.5569 24.0987 16.6667 24.375 16.6667C24.6513 16.6667 24.9162 16.5569 25.1116 16.3616C25.3069 16.1662 25.4167 15.9013 25.4167 15.625ZM20 17.5C20.663 17.5 21.2989 17.7634 21.7678 18.2322C22.2366 18.7011 22.5 19.3369 22.5 20C22.5 20.663 22.2366 21.2989 21.7678 21.7678C21.2989 22.2366 20.663 22.5 20 22.5C19.3369 22.5 18.7011 22.2366 18.2322 21.7678C17.7634 21.2989 17.5 20.663 17.5 20C17.5 19.3369 17.7634 18.7011 18.2322 18.2322C18.7011 17.7634 19.3369 17.5 20 17.5Z" fill="#1B2327"/>
</svg>
