<svg width="96" height="96" viewBox="0 0 96 96" fill="none" xmlns="http://www.w3.org/2000/svg">
  <path d="M62.707 75.9616L36.8334 50.0879L51.5458 87.8837L62.707 75.9616Z" fill="#000000" />
  <path d="M24.41 9L54.8496 38.1713L25.171 30.8151L24.41 9Z" fill="#000000" />
  <path d="M54.5917 37.9082L68.7969 47.2937L49.7721 63.0209L36.8353 50.084L54.5917 37.9082Z" fill="#000000" />
  <path d="M66.51 45.7845L76.9102 36.9062L54.5878 37.9209L66.51 45.7845Z" fill="#000000" />
  <path d="M54.5897 37.9148L63.9752 28.5293L83 36.6465L54.5897 37.9148Z" fill="#000000" />
  <path d="M13.9998 24.9785L54.5859 37.9153L36.8295 50.0912L13.9998 24.9785Z" fill="#000000" />
  <path d="M33.7922 75.2006L36.8362 50.0879L39.1191 77.9909L33.7922 75.2006Z" fill="#000000" />
  <path d="M39.401 82.3122L36.8487 50.0919L47.9919 78.5077L39.401 82.3122Z" fill="#000000" />
  <path d="M78.1804 34.623L83 36.6524L76.9121 36.906L78.1804 34.623Z" fill="#000000" />
</svg>
