<svg width="139" height="48" viewBox="0 0 139 48" fill="none" xmlns="http://www.w3.org/2000/svg">
<path d="M28.8799 40.3198L13.5378 24.9776L22.2617 47.3892L28.8799 40.3198Z" fill="url(#paint0_linear_3874_9814)"/>
<path d="M6.16725 0.610626L24.2168 17.9081L6.61849 13.5461L6.16725 0.610626Z" fill="url(#paint1_linear_3874_9814)"/>
<path d="M24.0671 17.7578L32.4902 23.3231L21.2093 32.6487L13.5382 24.9776L24.0671 17.7578Z" fill="url(#paint2_linear_3874_9814)"/>
<path d="M31.1368 22.4203L37.3037 17.1559L24.0674 17.7575L31.1368 22.4203Z" fill="url(#paint3_linear_3874_9814)"/>
<path d="M24.0668 17.7579L29.6321 12.1926L40.9131 17.0058L24.0668 17.7579Z" fill="#35BDF6"/>
<path d="M0.000337601 10.0866L24.0664 17.7576L13.5375 24.9774L0.000337601 10.0866Z" fill="url(#paint4_linear_3874_9814)"/>
<path d="M11.732 39.8685L13.5369 24.9776L14.8906 41.5231L11.732 39.8685Z" fill="url(#paint5_linear_3874_9814)"/>
<path d="M15.0621 44.0797L13.5487 24.9742L20.1562 41.8237L15.0621 44.0797Z" fill="url(#paint6_linear_3874_9814)"/>
<path d="M38.0552 15.802L40.9131 17.0053L37.3032 17.1557L38.0552 15.802Z" fill="#FFE600"/>
<path d="M51.9558 18.514L48.4475 29.4723L44.9805 18.514H41.8643L46.5902 32.9599H50.3048L55.072 18.514H51.9558Z" fill="#1A1C1E"/>
<path d="M58.0358 16.3677C57.004 16.3677 56.1991 17.09 56.1991 18.1012C56.1991 19.1124 57.004 19.8554 58.0358 19.8554C59.109 19.8554 59.8725 19.1124 59.8725 18.1012C59.8725 17.09 59.109 16.3677 58.0358 16.3677ZM56.55 32.9599H59.5011V21.6095H56.55V32.9599Z" fill="#1A1C1E"/>
<path d="M61.8911 32.9599H64.8422V17.0694H61.8911V32.9599Z" fill="#1A1C1E"/>
<path d="M73.671 21.3619C72.1026 21.3619 70.9676 22.0016 70.1421 23.1573V21.6095H67.191V32.9599H70.1421V26.9958C70.1421 25.1385 71.0295 24.1685 72.7011 24.1685C74.2695 24.1685 74.8267 24.994 74.8267 26.4799V32.9599H77.7778V25.8401C77.7778 23.0541 76.23 21.3619 73.671 21.3619Z" fill="#1A1C1E"/>
<path d="M88.5105 21.6095V23.1986C87.7263 22.1048 86.5294 21.3619 84.9197 21.3619C82.0099 21.3619 79.7604 23.7764 79.7604 27.2847C79.7604 30.7724 81.9686 33.2076 84.9403 33.2076C86.5294 33.2076 87.7057 32.5059 88.4899 31.4328V32.9599H91.441L91.4617 21.6095H88.5105ZM85.6007 30.4009C83.9704 30.4009 82.7322 29.1627 82.7322 27.2847C82.7322 25.4274 83.9497 24.1685 85.6007 24.1685C87.2517 24.1685 88.5105 25.4274 88.5105 27.2847C88.5105 29.1627 87.2517 30.4009 85.6007 30.4009Z" fill="#1A1C1E"/>
<path d="M101.057 33.2282C104.607 33.2282 107.31 30.9994 108.095 27.8626H104.339C103.761 29.1214 102.584 29.885 101.057 29.885C98.6634 29.885 97.1156 28.1515 97.1156 25.7369C97.1156 23.3224 98.6634 21.5889 101.057 21.5889C102.584 21.5889 103.761 22.3525 104.339 23.6113H108.095C107.31 20.4745 104.607 18.2457 101.057 18.2457C96.7235 18.2457 93.566 21.4857 93.566 25.7369C93.566 29.9882 96.7235 33.2282 101.057 33.2282Z" fill="#1A1C1E"/>
<path d="M118.272 32.9599H122.565L118.768 27.6149C120.542 27.0371 121.657 25.6544 121.657 23.343C121.657 20.33 119.758 18.514 116.704 18.514H110.265V32.9599H113.773V27.9451H114.867L118.272 32.9599ZM118.107 23.3843C118.107 24.3749 117.529 24.8702 116.312 24.8702H113.773V21.8572H116.312C117.488 21.8572 118.107 22.3731 118.107 23.3843Z" fill="#1A1C1E"/>
<path d="M135.017 18.514L131.715 23.4669L128.413 18.514H124.431V32.9599H127.939V23.4256L131.55 28.9357H131.881L135.492 23.4256V32.9599H139V18.514H135.017Z" fill="#1A1C1E"/>
<defs>
<linearGradient id="paint0_linear_3874_9814" x1="21.2088" y1="24.9776" x2="21.2088" y2="47.3892" gradientUnits="userSpaceOnUse">
<stop stop-color="#FFEC02"/>
<stop offset="1" stop-color="#FFDC0F"/>
</linearGradient>
<linearGradient id="paint1_linear_3874_9814" x1="15.192" y1="0.610626" x2="21.9606" y2="17.0056" gradientUnits="userSpaceOnUse">
<stop stop-color="#30B7F3"/>
<stop offset="1" stop-color="#45D0FF"/>
</linearGradient>
<linearGradient id="paint2_linear_3874_9814" x1="24.9696" y1="14.2983" x2="18.0506" y2="38.8156" gradientUnits="userSpaceOnUse">
<stop offset="0.132906" stop-color="#45D0FF"/>
<stop offset="0.901042" stop-color="#2CB3EC"/>
</linearGradient>
<linearGradient id="paint3_linear_3874_9814" x1="31.399" y1="17.2609" x2="30.4475" y2="21.5424" gradientUnits="userSpaceOnUse">
<stop offset="0.0732198" stop-color="#30B8F4"/>
<stop offset="0.89363" stop-color="#40CAFD"/>
</linearGradient>
<linearGradient id="paint4_linear_3874_9814" x1="0.000337692" y1="11.5907" x2="19.8548" y2="31.2948" gradientUnits="userSpaceOnUse">
<stop stop-color="#FFED00"/>
<stop offset="0.728061" stop-color="#FFD910"/>
</linearGradient>
<linearGradient id="paint5_linear_3874_9814" x1="13.3113" y1="24.9776" x2="13.3113" y2="41.5231" gradientUnits="userSpaceOnUse">
<stop stop-color="#FFEC02"/>
<stop offset="1" stop-color="#FFDC0F"/>
</linearGradient>
<linearGradient id="paint6_linear_3874_9814" x1="11.2574" y1="25.8239" x2="17.6689" y2="43.113" gradientUnits="userSpaceOnUse">
<stop stop-color="#38C1F8"/>
<stop offset="0.989583" stop-color="#44CFFF"/>
</linearGradient>
</defs>
</svg>
