<svg width="131" height="44" viewBox="0 0 131 44" fill="none" xmlns="http://www.w3.org/2000/svg">
<path d="M27.165 37.3505L12.7342 22.9197L20.94 44L27.165 37.3505Z" fill="url(#paint0_linear_3874_13518)"/>
<path d="M5.80087 0L22.7783 16.2701L6.22531 12.1672L5.80087 0Z" fill="url(#paint1_linear_3874_13518)"/>
<path d="M22.6377 16.1286L30.5605 21.3633L19.9496 30.135L12.7342 22.9196L22.6377 16.1286Z" fill="url(#paint2_linear_3874_13518)"/>
<path d="M29.2882 20.5142L35.0889 15.5625L22.6387 16.1284L29.2882 20.5142Z" fill="url(#paint3_linear_3874_13518)"/>
<path d="M22.6378 16.1287L27.8725 10.894L38.4834 15.4213L22.6378 16.1287Z" fill="#35BDF6"/>
<path d="M0.000118256 8.91302L22.6367 16.1284L12.7332 22.9194L0.000118256 8.91302Z" fill="url(#paint4_linear_3874_13518)"/>
<path d="M11.0358 36.9261L12.7335 22.9197L14.0068 38.4824L11.0358 36.9261Z" fill="url(#paint5_linear_3874_13518)"/>
<path d="M14.1687 40.887L12.7452 22.9164L18.9602 38.7651L14.1687 40.887Z" fill="url(#paint6_linear_3874_13518)"/>
<path d="M35.7953 14.2892L38.4834 15.421L35.0879 15.5625L35.7953 14.2892Z" fill="#FFE600"/>
<path d="M48.8691 16.8398L45.5692 27.1472L42.3081 16.8398H39.377L43.8221 30.4277H47.3162L51.8002 16.8398H48.8691Z" fill="#1A1C1E"/>
<path d="M54.588 14.821C53.6174 14.821 52.8604 15.5004 52.8604 16.4516C52.8604 17.4027 53.6174 18.1015 54.588 18.1015C55.5974 18.1015 56.3156 17.4027 56.3156 16.4516C56.3156 15.5004 55.5974 14.821 54.588 14.821ZM53.1904 30.4277H55.9662V19.7515H53.1904V30.4277Z" fill="#1A1C1E"/>
<path d="M58.2143 30.4277H60.9901V15.481H58.2143V30.4277Z" fill="#1A1C1E"/>
<path d="M69.2945 19.5185C67.8192 19.5185 66.7516 20.1203 65.9751 21.2073V19.7515H63.1993V30.4277H65.9751V24.8178C65.9751 23.0708 66.8098 22.1585 68.3821 22.1585C69.8574 22.1585 70.3815 22.9349 70.3815 24.3326V30.4277H73.1573V23.7308C73.1573 21.1103 71.7015 19.5185 69.2945 19.5185Z" fill="#1A1C1E"/>
<path d="M83.2526 19.7515V21.2462C82.5149 20.2174 81.3891 19.5185 79.875 19.5185C77.138 19.5185 75.0222 21.7897 75.0222 25.0896C75.0222 28.3701 77.0992 30.6606 79.8944 30.6606C81.3891 30.6606 82.4955 30.0007 83.2332 28.9913V30.4277H86.009L86.0284 19.7515H83.2526ZM80.5156 28.0207C78.9821 28.0207 77.8174 26.856 77.8174 25.0896C77.8174 23.3426 78.9627 22.1585 80.5156 22.1585C82.0685 22.1585 83.2526 23.3426 83.2526 25.0896C83.2526 26.856 82.0685 28.0207 80.5156 28.0207Z" fill="#1A1C1E"/>
<path d="M95.054 30.68C98.3928 30.68 100.936 28.5836 101.673 25.6331H98.1404C97.5969 26.8172 96.4905 27.5354 95.054 27.5354C92.8023 27.5354 91.3465 25.9049 91.3465 23.6337C91.3465 21.3626 92.8023 19.7321 95.054 19.7321C96.4905 19.7321 97.5969 20.4503 98.1404 21.6344H101.673C100.936 18.6839 98.3928 16.5874 95.054 16.5874C90.9777 16.5874 88.0077 19.635 88.0077 23.6337C88.0077 27.6325 90.9777 30.68 95.054 30.68Z" fill="#1A1C1E"/>
<path d="M111.247 30.4277H115.284L111.712 25.4002C113.382 24.8567 114.43 23.5561 114.43 21.382C114.43 18.548 112.644 16.8398 109.771 16.8398H103.715V30.4277H107.015V25.7108H108.044L111.247 30.4277ZM111.091 21.4209C111.091 22.3526 110.548 22.8185 109.402 22.8185H107.015V19.9844H109.402C110.509 19.9844 111.091 20.4697 111.091 21.4209Z" fill="#1A1C1E"/>
<path d="M126.997 16.8398L123.891 21.4985L120.785 16.8398H117.039V30.4277H120.339V21.4597L123.736 26.6425H124.046L127.443 21.4597V30.4277H130.743V16.8398H126.997Z" fill="#1A1C1E"/>
<defs>
<linearGradient id="paint0_linear_3874_13518" x1="19.9496" y1="22.9197" x2="19.9496" y2="44" gradientUnits="userSpaceOnUse">
<stop stop-color="#FFEC02"/>
<stop offset="1" stop-color="#FFDC0F"/>
</linearGradient>
<linearGradient id="paint1_linear_3874_13518" x1="14.2896" y1="1.97987e-07" x2="20.6561" y2="15.4212" gradientUnits="userSpaceOnUse">
<stop stop-color="#30B7F3"/>
<stop offset="1" stop-color="#45D0FF"/>
</linearGradient>
<linearGradient id="paint2_linear_3874_13518" x1="23.4866" y1="12.8746" x2="16.9786" y2="35.9356" gradientUnits="userSpaceOnUse">
<stop offset="0.132906" stop-color="#45D0FF"/>
<stop offset="0.901042" stop-color="#2CB3EC"/>
</linearGradient>
<linearGradient id="paint3_linear_3874_13518" x1="29.5348" y1="15.6612" x2="28.6399" y2="19.6884" gradientUnits="userSpaceOnUse">
<stop offset="0.0732198" stop-color="#30B8F4"/>
<stop offset="0.89363" stop-color="#40CAFD"/>
</linearGradient>
<linearGradient id="paint4_linear_3874_13518" x1="0.000118342" y1="10.3278" x2="18.6753" y2="28.8615" gradientUnits="userSpaceOnUse">
<stop stop-color="#FFED00"/>
<stop offset="0.728061" stop-color="#FFD910"/>
</linearGradient>
<linearGradient id="paint5_linear_3874_13518" x1="12.5213" y1="22.9197" x2="12.5213" y2="38.4824" gradientUnits="userSpaceOnUse">
<stop stop-color="#FFEC02"/>
<stop offset="1" stop-color="#FFDC0F"/>
</linearGradient>
<linearGradient id="paint6_linear_3874_13518" x1="10.59" y1="23.7156" x2="16.6207" y2="39.9777" gradientUnits="userSpaceOnUse">
<stop stop-color="#38C1F8"/>
<stop offset="0.989583" stop-color="#44CFFF"/>
</linearGradient>
</defs>
</svg>
